<svg xmlns="http://www.w3.org/2000/svg" viewBox="0 0 128 128"><path d="M102.26,26.15h1.83c0-.52.09-.88.12-1.16,2.46-.11,4.86-.25,7.26-.32s4.67.5,7,.08c.2-1.37.15-1.49-1.12-1.44a21.72,21.72,0,0,0-3.92.27,27.17,27.17,0,0,1-5.42.1c-.66,0-.83-.3-.74-.91a3.42,3.42,0,0,0-.11-.88l-.9.18c-1.13-1.2-.22-2.85-.69-4.27a1.74,1.74,0,0,0-.45,0c-.16,1.5-.29,3-.43,4.51l-.29.11c-.13-.43-.26-.85-.41-1.37h-1.17c-6.11,0-12.22.05-18.33,0-1.75,0-3.61.59-5.28-.71-.46-.35-.92-.47-.85-1.16a5.88,5.88,0,0,0-.06-1l-.37-.06c-.25.95-.5,1.9-.74,2.84l-5.18.9c-.11-.68-.22-1.1-.24-1.52,0-.81-.52-1.72.92-2,.72-.16,1.7-.46,1.88-1.58.41-2.44-.41-4.73-1-7-.16-.65-1.53-1-2.33-1.46-.32-.19-.6-.44-.91-.64a8.1,8.1,0,0,0-10.12,1.1,9.62,9.62,0,0,0-2.25,10c.25.82.06,1.22-.34,1.42a9,9,0,0,0-2.28-.81c-3.55-.17-5.89,1.8-7.52,4.68a18.92,18.92,0,0,0-2.12,12.24c.22,1.6-.18,2-1.85,2.13a5,5,0,0,1-.77,0c-1.56-.11-2,.31-2.06,1.84-.14,2.19-.4,4.38-.61,6.57-.08.8-.16,1.61-.27,2.41s.18,1.12,1,1.24c1.08.16,2.13.44,3.2.67-1.77.32-3,1-3,2.57,0,1.32.21,2.63.34,3.94.19,2.09.39,4.17.58,6.25l-.36-.17c-.43.41-1.07.75-1.23,1.25-.28.87-1.1,2,.34,2.62-.52,1-.31,1-.28,2.33a2.61,2.61,0,0,0,.69,2.21c0,.05-.07.26-.09.4-.51,4.09-1.63,8.08-1.29,12.31.11,1.36-1.06,2.87-1.8,4.23-.9,1.67-2,3.22-2.93,4.88a4.49,4.49,0,0,0-.65,2.19A7.22,7.22,0,0,1,33.43,100a9,9,0,0,0-.7,1.25c-.59,1.58-1.13,3.17.08,4.75a1.21,1.21,0,0,1,0,.84c-.69,2.69-1.37,5.38-2.13,8a10.15,10.15,0,0,0-.25,4.89,1.26,1.26,0,0,0,.74.76c2.34.77,4.73.41,7.1.2.2,0,.53-.3.52-.45,0-.93-.13-1.85-.26-2.77,0-.31-.33-.6-.34-.9-.09-2.76-.18-5.52,1.18-8.09.41-.76.59-1.59,1.63-1.81.3-.06.58-.53.73-.87,1.18-2.76,2.39-5.5,3.44-8.3a6.71,6.71,0,0,0,.29-3,4.72,4.72,0,0,1,1.33-3.68A11.1,11.1,0,0,0,49,87.84a1.21,1.21,0,0,1,.61-.57,2.18,2.18,0,0,0,1.38-2,21.43,21.43,0,0,1,2-6.7,12.58,12.58,0,0,1,1-2.17c.77-1.21,1.65-2.35,2.43-3.45.12.22.38.66.6,1.12a2.4,2.4,0,0,0,2.33,1.68,1.77,1.77,0,0,1,1.57,1c1.31,2.08,2.81,4,4.07,6.15.92,1.56,2,2.42,3.91,2.12a1.17,1.17,0,0,1,.88.26c.86.85,1.11,4.34.28,5.17A2.89,2.89,0,0,0,69.34,93c.19,2.08.35,4.17.62,6.25.18,1.34.21,2.85.9,3.92s.51,2.18.68,3.28a5,5,0,0,1,.11.76,21.46,21.46,0,0,1-.06,3.85c-.32,1.85-.94,3.65-1.41,5.48-.25,1,.41,1.38,1.24,1.53a4.24,4.24,0,0,0,1.33,0,9.71,9.71,0,0,1,5.35.67.82.82,0,0,0,.22,0l7.82.21c.68,0,1.31,0,1.48-.93s.13-1.63-.74-2.08-1.68-.7-2.47-1.14a12.88,12.88,0,0,1-2.52-1.65,19.47,19.47,0,0,1-2.07-2.44,2.47,2.47,0,0,1-.7-1.22c-.08-2.16-.06-4.33-.05-6.49,0-.13.12-.26.19-.38a5.74,5.74,0,0,0,.54-3.82,13,13,0,0,1-.25-3.16c.29-3.26.77-6.49,1-9.75a14.79,14.79,0,0,0-.61-3.27c-.13-.77.19-1.74-1-1.93-.15,0-.25-.42-.34-.65-.32-.82-.61-1.65-.93-2.46-2-5.11-4.19-10.11-8.16-14.1-1-1-1-3.66-.23-4.89a8.75,8.75,0,0,0,1.53.55c.34.06.94,0,1.07-.23a9.81,9.81,0,0,0,1.58-3.34c.35-3,.37-6,.51-8.93a5.05,5.05,0,0,0-.15-.85c-.21-1.43-1.4-1.86-2.46-2.32.28-.93.53-1.74.78-2.58a1.63,1.63,0,0,1,.26.09c3,1.51,5.82,3.43,9.35,4a4.13,4.13,0,0,0,3.54-.92,8.56,8.56,0,0,0,1.26-1,14.28,14.28,0,0,0,1.84-2.36,7.62,7.62,0,0,0,.48-2.13c.28-1.36.4-2.85,2.3-2.64-.33-2.15-.65-4.19-.91-5.84,1.07-1.28,2.37-1.75,2.64-3.13a.45.45,0,0,1,.3-.27,11.82,11.82,0,0,1,2.32-.48C97.74,26.11,100,26.15,102.26,26.15ZM82.37,33.83c-.54-.87-1-1.63-1.48-2.41a.82.82,0,0,1,.71-1.23c1.06,0,2.13,0,3.4,0Zm2.28-3.93a13.54,13.54,0,0,1-2.47.05c.67-.4,1.32-.71.91-1.64A6.56,6.56,0,0,1,84.8,28c.23,0,.65.61.61.87S85,29.84,84.65,29.9Z"/></svg>